<?xml version="1.0" standalone="no"?>
<!DOCTYPE svg PUBLIC "-//W3C//DTD SVG 20010904//EN"
 "http://www.w3.org/TR/2001/REC-SVG-20010904/DTD/svg10.dtd">
<svg version="1.0" xmlns="http://www.w3.org/2000/svg"
 width="1024.000000pt" height="1024.000000pt" viewBox="0 0 1024.000000 1024.000000"
 preserveAspectRatio="xMidYMid meet">

<g transform="translate(0.000000,1024.000000) scale(0.100000,-0.100000)"
fill="#000000" stroke="none">
<path d="M0 5120 l0 -5120 5120 0 5120 0 0 5120 0 5120 -5120 0 -5120 0 0
-5120z m5208 2353 c-64 -2 -172 -2 -240 0 -68 1 -15 3 117 3 132 0 187 -2 123
-3z m-1008 -170 c30 -8 63 -19 72 -24 10 -5 23 -9 30 -9 16 0 251 -97 303
-125 22 -12 66 -36 97 -53 32 -17 82 -47 113 -66 30 -20 57 -36 60 -36 6 0
175 -118 197 -137 20 -18 19 -18 153 77 44 32 96 66 115 77 122 68 161 89 229
123 69 35 123 59 176 80 11 4 45 18 75 30 30 13 69 26 85 31 17 4 64 17 105
29 103 29 273 33 350 6 124 -42 248 -152 304 -269 68 -140 89 -279 83 -542 -5
-212 -16 -339 -41 -444 -16 -69 -10 -91 25 -91 49 0 477 -217 604 -305 50 -35
123 -96 164 -137 74 -73 161 -193 161 -222 0 -8 4 -17 9 -20 4 -3 14 -40 21
-83 14 -78 4 -206 -18 -250 -5 -10 -16 -31 -23 -48 -17 -38 -77 -121 -116
-160 -92 -93 -285 -245 -368 -291 -125 -68 -271 -135 -375 -172 -112 -41 -111
-40 -101 -59 20 -37 45 -222 58 -423 8 -139 -25 -456 -59 -555 -33 -97 -84
-178 -151 -241 -38 -35 -76 -64 -83 -64 -8 0 -14 -3 -14 -8 0 -7 -14 -14 -94
-46 -58 -24 -223 -21 -322 5 -44 11 -90 23 -104 26 -14 2 -34 8 -45 13 -11 4
-51 21 -90 36 -120 48 -444 218 -465 245 -3 3 -25 19 -50 34 -25 15 -71 48
-103 71 -31 24 -62 44 -68 44 -6 0 -23 -9 -37 -21 -42 -32 -273 -189 -279
-189 -3 0 -17 -8 -31 -19 -41 -28 -248 -133 -327 -164 -38 -16 -78 -33 -87
-38 -10 -5 -25 -9 -33 -9 -8 0 -23 -4 -33 -10 -47 -26 -136 -40 -254 -40 -122
0 -124 1 -199 38 -190 92 -281 211 -332 432 -36 156 -42 217 -42 455 0 227 9
338 35 420 12 36 3 45 -65 69 -27 10 -59 21 -70 26 -11 4 -36 14 -55 20 -88
32 -363 173 -433 224 -127 91 -255 214 -304 292 -17 26 -58 111 -74 154 -19
48 -18 231 1 290 44 136 162 268 343 383 31 21 60 37 63 37 3 0 28 15 57 33
63 40 152 83 272 132 50 20 118 50 152 66 34 16 68 29 75 29 26 1 51 28 43 47
-31 76 -57 431 -45 626 19 309 79 454 237 579 92 73 139 95 233 108 73 11 222
2 290 -17z m-2232 -2216 l2 -2027 -342 2 -343 3 -3 2015 c-1 1108 0 2021 3
2028 3 10 77 12 342 10 l338 -3 3 -2028z m6902 3 l0 -2030 -332 2 -333 3 -3
2015 c-1 1108 0 2021 3 2028 3 9 80 12 335 12 l330 0 0 -2030z"/>
<path d="M6140 7060 c-14 -4 -38 -8 -53 -9 -72 -3 -423 -160 -534 -238 -17
-13 -34 -23 -37 -23 -4 0 -42 -24 -85 -52 -43 -29 -86 -58 -97 -65 -17 -11
-12 -18 68 -96 48 -46 117 -122 155 -169 211 -262 181 -238 298 -238 52 0 114
-4 137 -10 24 -5 97 -19 163 -30 143 -25 188 -34 234 -49 19 -6 36 -9 37 -8 4
3 22 112 36 212 21 151 13 391 -18 520 -41 172 -84 225 -206 251 -71 15 -65
15 -98 4z"/>
<path d="M3930 7051 c-125 -27 -172 -98 -205 -311 -13 -82 -16 -149 -12 -305
5 -175 24 -355 39 -371 3 -2 16 -1 29 4 53 21 97 32 122 32 14 0 29 5 32 10 3
6 21 10 38 10 18 0 48 5 67 10 19 6 64 15 100 20 36 5 92 14 125 20 33 6 87
14 120 17 57 5 62 7 98 51 20 26 54 65 75 88 20 22 62 69 92 105 91 106 182
198 201 204 19 6 27 35 10 35 -8 0 -95 61 -128 90 -7 5 -17 10 -23 10 -5 0
-10 5 -10 10 0 6 -5 10 -11 10 -6 0 -25 11 -42 24 -60 45 -294 166 -321 166
-8 0 -17 4 -20 9 -3 5 -16 11 -28 14 -13 3 -55 14 -93 25 -80 23 -203 35 -255
23z"/>
<path d="M4987 6393 c-132 -134 -159 -164 -154 -169 2 -2 28 1 56 7 55 11 376
7 441 -7 l35 -7 -65 74 c-90 102 -190 199 -204 199 -7 0 -56 -44 -109 -97z"/>
<path d="M4795 5950 c-49 -4 -118 -11 -152 -15 l-62 -8 -75 -111 c-41 -61 -83
-127 -94 -146 -11 -19 -36 -64 -57 -100 -44 -78 -143 -283 -199 -412 l-24 -57
23 -48 c13 -26 44 -93 70 -148 26 -55 55 -116 65 -135 10 -19 43 -82 72 -140
30 -58 75 -141 99 -185 24 -44 53 -98 64 -120 18 -36 24 -40 70 -47 238 -31
594 -37 845 -13 85 8 156 18 158 23 7 17 63 110 143 234 81 124 142 237 202
368 13 30 43 94 66 143 l42 87 -24 43 c-28 48 -90 167 -212 407 -16 32 -88
168 -128 240 -37 68 -78 130 -86 131 -53 11 -699 18 -806 9z m435 -376 c83
-28 133 -59 189 -114 70 -69 80 -82 113 -150 41 -84 50 -128 45 -215 -5 -98
-16 -138 -58 -221 -77 -150 -251 -254 -424 -254 -52 0 -129 16 -188 39 -73 29
-193 134 -219 192 -7 16 -16 29 -20 29 -5 0 -8 7 -8 15 0 8 -4 23 -9 33 -41
83 -49 184 -22 286 11 43 27 90 34 105 29 58 100 142 150 178 50 37 66 46 132
73 75 31 200 32 285 4z"/>
<path d="M5960 5888 c0 -7 9 -24 20 -38 11 -14 20 -29 20 -33 0 -4 16 -33 35
-63 19 -30 35 -57 35 -59 0 -3 27 -62 60 -131 33 -69 60 -133 60 -142 0 -28
25 7 44 63 10 28 27 69 37 93 11 24 27 62 35 85 21 55 34 88 45 109 15 30 11
34 -43 46 -29 6 -93 21 -143 33 -49 11 -110 24 -135 28 -25 4 -51 10 -58 14
-7 5 -12 3 -12 -5z"/>
<path d="M4170 5883 c-14 -2 -43 -8 -65 -13 -37 -9 -66 -15 -227 -51 -55 -11
-57 -13 -52 -38 3 -14 10 -36 15 -48 12 -30 24 -59 44 -108 10 -22 21 -50 26
-62 5 -13 13 -33 19 -45 5 -13 16 -41 25 -63 l16 -39 32 69 c17 39 34 72 37
75 3 3 18 32 35 65 16 33 49 93 72 133 24 40 43 76 43 81 0 5 7 14 15 21 8 7
15 16 15 21 0 9 -5 9 -50 2z"/>
<path d="M3500 5703 c-68 -31 -116 -53 -224 -103 -59 -27 -112 -50 -117 -50
-5 0 -9 -4 -9 -10 0 -5 -7 -10 -16 -10 -8 0 -30 -11 -48 -25 -18 -14 -36 -25
-40 -25 -18 0 -150 -96 -200 -146 -145 -145 -149 -272 -14 -419 27 -30 73 -71
101 -92 29 -20 54 -40 57 -44 3 -3 48 -33 100 -65 106 -67 209 -117 320 -158
41 -15 83 -31 92 -37 27 -14 58 -11 58 6 0 8 7 31 16 52 19 43 27 64 44 113 7
19 21 55 32 79 11 24 28 67 39 95 21 53 103 211 122 234 7 9 4 23 -11 50 -51
91 -100 194 -136 282 -21 52 -43 106 -48 120 -6 14 -14 34 -18 45 -4 11 -15
37 -24 58 -9 21 -16 44 -16 52 0 19 -15 18 -60 -2z"/>
<path d="M6617 5713 c-4 -3 -7 -16 -7 -28 0 -11 -4 -25 -8 -30 -5 -6 -21 -44
-36 -85 -31 -82 -43 -111 -91 -215 -18 -38 -52 -110 -75 -160 l-41 -90 65
-130 c90 -181 110 -228 141 -325 15 -47 31 -93 36 -102 5 -10 9 -25 9 -34 0
-12 7 -14 33 -9 17 4 37 10 42 14 6 4 28 13 50 20 102 34 371 181 455 248 182
146 230 214 230 326 0 71 -21 111 -102 197 -40 43 -200 170 -213 170 -4 0 -21
11 -38 24 -38 28 -422 216 -441 216 -1 0 -6 -3 -9 -7z"/>
<path d="M3948 4742 c-15 -31 -41 -88 -58 -127 -38 -82 -72 -186 -65 -193 11
-11 81 -32 107 -32 15 0 37 -4 50 -9 13 -5 50 -14 83 -21 33 -6 78 -18 99 -26
46 -16 55 -11 36 19 -30 49 -178 335 -206 399 l-20 47 -26 -57z"/>
<path d="M6166 4702 c-27 -53 -60 -114 -74 -135 -13 -22 -35 -60 -49 -85 -14
-26 -39 -66 -54 -90 -30 -45 -40 -83 -16 -64 6 5 41 15 77 21 36 6 85 16 110
21 25 6 68 15 95 20 78 13 108 27 100 48 -4 9 -13 37 -21 62 -9 25 -26 69 -40
98 -13 29 -24 57 -24 62 0 6 -4 18 -9 28 -8 16 -18 39 -37 89 -8 20 -15 11
-58 -75z"/>
<path d="M3740 4119 c0 -19 -7 -74 -15 -124 -26 -158 -18 -321 31 -625 6 -40
11 -54 49 -133 33 -68 60 -92 128 -112 60 -18 91 -19 154 -4 118 27 158 42
343 132 76 37 267 150 280 167 3 3 23 19 45 36 22 16 46 35 53 42 8 6 23 17
34 23 18 10 12 18 -74 102 -52 51 -120 124 -152 162 -52 61 -179 205 -213 240
-7 7 -41 16 -75 20 -35 4 -83 11 -108 17 -51 11 -124 24 -220 38 -36 5 -96 16
-135 26 -131 30 -125 31 -125 -7z"/>
<path d="M6388 4145 c-6 -6 -112 -31 -193 -46 -27 -5 -70 -13 -95 -18 -25 -5
-79 -14 -120 -20 -41 -7 -97 -16 -123 -21 -27 -6 -62 -10 -78 -10 -20 0 -34
-8 -46 -27 -16 -26 -113 -146 -188 -233 -16 -19 -75 -81 -131 -137 l-102 -101
141 -95 c173 -115 233 -150 382 -222 137 -67 154 -73 264 -90 123 -19 181 -6
244 58 26 27 47 56 47 66 0 9 4 21 8 26 10 11 23 57 49 160 39 160 11 715 -37
715 -9 0 -19 -2 -22 -5z"/>
<path d="M5320 3988 c-21 -6 -135 -9 -283 -6 -136 1 -247 2 -247 1 0 -12 273
-273 285 -273 15 0 295 268 295 282 0 10 -5 9 -50 -4z"/>
</g>
</svg>
